PathFileType	4	(X/Y/Z)	0_coords_data.trc
DataRate	CameraRate	NumFrames	NumMarkers	Units	OrigDataRate	OrigDataStartFrame	OrigNumFrames
30.0	30.0	7	21	m	30.0	1	78
Frame#	Time	THUMB_TIP	THUMB_IP	THUMB_MCP	THUMB_CMC	INDEX_TIP	INDEX_DIP	INDEX_PIP	INDEX_MCP	MIDDLE_TIP	MIDDLE_DIP	MIDDLE_PIP	MIDDLE_MCP	RING_TIP	RING_DIP	RING_PIP	RING_MCP	PINKY_TIP	PINKY_DIP	PINKY_PIP	PINKY_MCP	WRIST
X1	Y1	Z1	X2	Y2	Z2	X3	Y3	Z3	X4	Y4	Z4	X5	Y5	Z5	X6	Y6	Z6	X7	Y7	Z7	X8	Y8	Z8	X9	Y9	Z9	X10	Y10	Z10	X11	Y11	Z11	X12	Y12	Z12	X13	Y13	Z13	X14	Y14	Z14	X15	Y15	Z15	X16	Y16	Z16	X17	Y17	Z17	X18	Y18	Z18	X19	Y19	Z19	X20	Y20	Z20	X21	Y21	Z21
0	-2.749317978547796e-18	0.5273061304878731	-0.015305280471597515	-0.14927609727480023	0.5103211829384748	-0.019251366106782686	-0.1343114734938971	0.4830866904175062	-0.025830127988872742	-0.12075336487860466	0.47580567126907247	-0.027796303972252523	-0.07678734490678413	0.5687328962627382	0.020215912815223946	-0.15460161011982787	0.5527395689691654	0.024945758793217476	-0.14754172066565657	0.530309233092847	0.028747871911086742	-0.1368443470947993	0.4935134646267868	0.021955308628071823	-0.11650796095963939	0.5870350032299949	0.01831148892991563	-0.13950681352233618	0.5715747004854022	0.023045312960312425	-0.13134777258024133	0.5465257796464447	0.030053579891931137	-0.118200707910939	0.5070791394552158	0.027823652737326898	-0.09734074809532822	0.5896077340910286	0.006731234961887211	-0.11398070000607058	0.5779581998949566	0.01728779247003398	-0.10515758000282122	0.5590092305940605	0.029057817282654996	-0.094085856679689	0.52143641433654	0.02280111544282537	-0.08052643211350319	0.5842249285075775	-0.00465842826082552	-0.09341548700636693	0.5765427026010549	0.005538316878800131	-0.0820133032822431	0.5624137420273145	0.01560018936450136	-0.07018354359799012	0.527762628127859	0.00963726618874583	-0.06214443271885628	0.4622830810018609	-0.023011742144276925	-0.051989820119430985
1	0.03333333333333339	0.5274626976527127	-0.015212123263061095	-0.14918310708213056	0.5104624605213975	-0.019186214278231084	-0.13424327649131734	0.48321602589504686	-0.025792956455383043	-0.1207228194740178	0.4758110235712193	-0.02781818387218704	-0.07678019330654418	0.5686929020677473	0.020146651772434354	-0.15455763288652902	0.5527092884965338	0.02492906748906032	-0.1475111729867291	0.530282995525508	0.028750060296127478	-0.1368120500999659	0.49347125023621496	0.022018521652630407	-0.11648428853487142	0.58701194138625	0.018270804884205183	-0.13954989354406377	0.57155978225363	0.02302585715836425	-0.13138777029026505	0.5465151413158753	0.030000288986914092	-0.11821458498951654	0.5070795547576449	0.027835668905880184	-0.09732686482399616	0.5895134371922386	0.006688598490899422	-0.11401311012599297	0.5778728074790804	0.017255069574000692	-0.10519010447422528	0.558983491753863	0.02909876749118956	-0.09409503574620798	0.5214198669147876	0.02282878395442356	-0.08051629392680926	0.5841144977634695	-0.004653601513129435	-0.09351698353188725	0.5764847980687591	0.0055636045520324195	-0.08209785997574015	0.5623949692283776	0.01563052977280721	-0.0702258020729129	0.5277538302814975	0.009651360262614372	-0.06215582837832523	0.462283081001861	-0.023011742144276925	-0.051989820119430985
2	0.06666666666666676	0.5275595023117684	-0.015151462658654857	-0.14911715421267713	0.5105447638173014	-0.01913879607553326	-0.13419737384607816	0.48328982707441936	-0.02576756672599012	-0.12070486396818148	0.4758182120031559	-0.027824730498072103	-0.07677499889393274	0.5686487075657847	0.020062073663127955	-0.15453457593331882	0.5526756647756359	0.024892703844475617	-0.14749703971137823	0.5302549904498902	0.028737627518768072	-0.13679471483695388	0.49343035223440457	0.02206689047447663	-0.11647026203781252	0.5869749156728072	0.01823603454385181	-0.13960746931285134	0.5715324941848088	0.023012726185875465	-0.13143955430692578	0.5464960958251123	0.02996769067695193	-0.11824043402932966	0.5070745151618116	0.0278443946839112	-0.09732205662732224	0.5894223356295147	0.006643620433211095	-0.11406199571251474	0.5777972898660845	0.017224293126215984	-0.10523546319052979	0.5589596637800407	0.029129609177467874	-0.0941184819383099	0.521407020639028	0.022845621563269858	-0.0805158598826784	0.5840099874149445	-0.00465537353384482	-0.093615962807577	0.5764312545145182	0.005584572621754602	-0.08218327675597836	0.5623757481674684	0.015657745745827012	-0.07027588646504945	0.5277450917872171	0.009663863858264676	-0.06217190783779958	0.4622830810018608	-0.023011742144276925	-0.051989820119430985
3	0.10000000000000014	0.52760618607845	-0.015118646060013563	-0.14907470092337616	0.5105777749863394	-0.019107063689708492	-0.13417081752040966	0.48331724625920813	-0.02575244257334519	-0.1206977884248363	0.4758265343131385	-0.027818784414860853	-0.0767716064152989	0.5686014632106783	0.019962157655507906	-0.15452883754715663	0.5526396710011402	0.02483761844544119	-0.14749669196096804	0.5302259842302439	0.028711835073055414	-0.1367902955616903	0.49339098585346	0.02210197875238329	-0.11646472575412042	0.5869263811897291	0.018205070826201264	-0.13967641318066853	0.5714950249490349	0.023003900508316688	-0.13150056593069898	0.5464701565422161	0.029952141602023308	-0.11827606378789074	0.5070647678186813	0.02785032371741747	-0.097325034645458	0.5893345421177187	0.0065962206343251895	-0.11412403250116843	0.5777309342987278	0.01719504614576295	-0.10529107244458774	0.5589377499009597	0.02915137768739051	-0.09415364297194145	0.5213974605198702	0.022853178914572503	-0.0805235219379174	0.5839116562636176	-0.004663518368240638	-0.09371140820266782	0.5763820961398908	0.005600966424967324	-0.08226824097181851	0.5623566220008049	0.01568146052898911	-0.07033166973914812	0.5277366715183421	0.009674568567660802	-0.06219166184254521	0.4622830810018609	-0.023011742144276925	-0.051989820119430985
4	0.13333333333333353	0.5276117131601131	-0.01510944158283356	-0.14905202613511798	0.5105705209323715	-0.019089358629955422	-0.13416048398008268	0.48330679091248174	-0.025746462630648392	-0.12069972650784072	0.4758352743955716	-0.02780329018713601	-0.07676982892839707	0.5685522835148948	0.01984688810904678	-0.1545368131456617	0.5526022582161537	0.024764765948060097	-0.14750750517616268	0.5301967254784322	0.028673946788745908	-0.13679675165954674	0.4933533615695369	0.02212533705984643	-0.1164665194794835	0.5868687416529824	0.01817582425399844	-0.13975358554196404	0.5714495114999438	0.022997380464098605	-0.13156823660618433	0.5464387978481805	0.029949989953372058	-0.11831927536693371	0.5070510506216098	0.02785394172838096	-0.09733452206234888	0.5892501127076669	0.006546306230562848	-0.11419589231736021	0.5776729843220153	0.017166901878772123	-0.10535434005435912	0.5589177512664661	0.029165098080356278	-0.09419797416127679	0.5213907682548093	0.02285299629615667	-0.08053767580770016	0.5838197516909719	-0.004677808835831354	-0.09380230657712746	0.5763373326395863	0.005612536385202982	-0.08235144633121605	0.5623381389391264	0.015701293257559534	-0.07039102913500228	0.52772882804219	0.009683266335690277	-0.06221408580593041	0.4622830810018609	-0.023011742144276925	-0.051989820119430985
5	0.1666666666666669	0.5275846735354792	-0.01511985362004109	-0.14904531750320926	0.5105316666967523	-0.01908423794087133	-0.13416315990711153	0.48326661529076465	-0.025748724076280483	-0.12070873326084397	0.4758437169420663	-0.027781244233158087	-0.07676946333157941	0.5685022550194335	0.01971625549869227	-0.15455489378270648	0.5525643604070358	0.02467510674642237	-0.14752685638760188	0.5301679506315428	0.028625230549056413	-0.13681204495146043	0.4933176865189033	0.02213850519424687	-0.11647448061843402	0.5868043716020119	0.01814621010404538	-0.1398358441327872	0.5713980615899271	0.022991173608593707	-0.13163999515594965	0.5464034745235883	0.02995757495753837	-0.11836786572512253	0.5070340959767403	0.027855729348664093	-0.09734925019337431	0.5891690672462037	0.006493773836839467	-0.11427424254181523	0.5776226515076301	0.01713942505710464	-0.10542266676749745	0.5588996710759205	0.02917178698455669	-0.09424893645033716	0.5213865244870866	0.022846606197755026	-0.08055672132571495	0.5837345159227472	-0.004698017653652409	-0.09388764471385075	0.5762969648747346	0.005619036397159993	-0.0824315882317615	0.5623208539242294	0.015716859313618325	-0.07045184223916973	0.527721820146495	0.009689749357688626	-0.062238179339687005	0.4622830810018609	-0.023011742144276925	-0.051989820119430985
6	0.20000000000000023	0.527533517492109	-0.015145977605194316	-0.14905073940817415	0.5104697424778994	-0.019090337833468585	-0.13417560563889186	0.48320474573273375	-0.025758404171526972	-0.12072284221283874	0.47585115762461805	-0.027755653846706974	-0.07677030263124945	0.568452442075277	0.019570257614235143	-0.1545794644815059	0.5525268983215903	0.024569608888983074	-0.14755212195526707	0.530140388399157	0.028566960230113847	-0.13683413759493313	0.4932841657417367	0.02214301433700916	-0.1164874458591959	0.5867356338324211	0.018114138422172132	-0.13992005105308736	0.571342771528938	0.02298328492296975	-0.13171327321645876	0.546365636579737	0.029971227146389112	-0.11841963025406671	0.507014633968505	0.027856164473542666	-0.0973679551572782	0.5890914063668227	0.006438512001827212	-0.11435574592333109	0.577579125201432	0.01711217343448168	-0.10549344746356032	0.5588835175992342	0.02917245451985706	-0.09430399459371963	0.5213843105404231	0.022835535644089355	-0.08057906242185237	0.5836561910090396	-0.004723918270058247	-0.09396640641479459	0.5762609893765381	0.005620222424599031	-0.08250735994033681	0.5623053295865356	0.015727770671344454	-0.0705119838618048	0.5277159072615358	0.009693809885085392	-0.06226294564800677	0.462283081001861	-0.023011742144276925	-0.051989820119430985
